<svg
	xmlns="http://www.w3.org/2000/svg">
	<svg width="24" height="24" viewBox="0 0 24 24" fill="currentColor"
		xmlns="http://www.w3.org/2000/svg" id="masbossun_menu">
		<rect x="3" y="6" width="18" height="4" fill="currentColor"/>
		<rect x="3" y="14" width="18" height="4" fill="currentColor"/>
	</svg>
	<svg width="24" height="24" viewBox="0 0 24 24" fill="currentColor"
		xmlns="http://www.w3.org/2000/svg" id="masbossun_times">
		<rect x="7" y="4" width="18" height="4" transform="rotate(45 7 4)" fill="currentColor"/>
		<rect x="4.22168" y="16.9497" width="18" height="4" transform="rotate(-45 4.22168 16.9497)" fill="currentColor"/>
	</svg>
	<svg width="21" height="20" viewBox="0 0 21 20" fill="currentColor"
		xmlns="http://www.w3.org/2000/svg" id="twitter_solid">
		<path d="M18.8337 4.83351C18.2073 5.10525 17.5448 5.28489 16.867 5.36684C17.5821 4.93961 18.1181 4.26749 18.3753 3.47517C17.7033 3.87523 16.9676 4.15709 16.2003 4.30851C15.6874 3.75232 15.0045 3.38209 14.2585 3.25588C13.5125 3.12968 12.7458 3.25464 12.0785 3.61117C11.4112 3.96769 10.8811 4.53562 10.5714 5.22587C10.2616 5.91613 10.1897 6.68967 10.367 7.42517C9.00818 7.35645 7.67903 7.00264 6.46587 6.38673C5.25272 5.77082 4.1827 4.90659 3.32533 3.85017C3.02461 4.37532 2.86659 4.97003 2.86699 5.57517C2.86593 6.13716 3.00384 6.69069 3.26845 7.18648C3.53307 7.68227 3.91617 8.10493 4.38366 8.41684C3.84031 8.40206 3.30856 8.25626 2.83366 7.99184V8.03351C2.83773 8.82092 3.11365 9.58275 3.61475 10.1901C4.11585 10.7975 4.81137 11.2132 5.58366 11.3668C5.28637 11.4573 4.97772 11.505 4.66699 11.5085C4.4519 11.506 4.23734 11.4865 4.02533 11.4502C4.24525 12.1275 4.67084 12.7195 5.24289 13.1436C5.81493 13.5678 6.50497 13.8031 7.21699 13.8168C6.01466 14.7629 4.53023 15.2792 3.00033 15.2835C2.72177 15.2844 2.44344 15.2677 2.16699 15.2335C3.72902 16.2421 5.54934 16.7774 7.40866 16.7752C8.69174 16.7885 9.96461 16.546 11.1529 16.0619C12.3412 15.5778 13.4212 14.8617 14.3297 13.9556C15.2381 13.0494 15.957 11.9713 16.4441 10.7843C16.9313 9.59719 17.177 8.32495 17.167 7.04184V6.60017C17.8209 6.11252 18.3849 5.5147 18.8337 4.83351Z" fill="currentColor"/>
	</svg>
	<svg width="21" height="20" viewBox="0 0 21 20" fill="currentColor"
		xmlns="http://www.w3.org/2000/svg" id="linkedin_solid">
		<path d="M17.5585 1.66711H3.4418C3.28311 1.6649 3.12555 1.69398 2.9781 1.75268C2.83066 1.81138 2.69622 1.89854 2.58246 2.0092C2.46871 2.11986 2.37786 2.25185 2.31512 2.39762C2.25238 2.54339 2.21897 2.70009 2.2168 2.85878V17.1421C2.21897 17.3008 2.25238 17.4575 2.31512 17.6033C2.37786 17.749 2.46871 17.881 2.58246 17.9917C2.69622 18.1023 2.83066 18.1895 2.9781 18.2482C3.12555 18.3069 3.28311 18.336 3.4418 18.3338H17.5585C17.7171 18.336 17.8747 18.3069 18.0222 18.2482C18.1696 18.1895 18.304 18.1023 18.4178 17.9917C18.5316 17.881 18.6224 17.749 18.6851 17.6033C18.7479 17.4575 18.7813 17.3008 18.7835 17.1421V2.85878C18.7813 2.70009 18.7479 2.54339 18.6851 2.39762C18.6224 2.25185 18.5316 2.11986 18.4178 2.0092C18.304 1.89854 18.1696 1.81138 18.0222 1.75268C17.8747 1.69398 17.7171 1.6649 17.5585 1.66711ZM7.2418 15.6171H4.7418V8.11711H7.2418V15.6171ZM5.9918 7.06711C5.64702 7.06711 5.31635 6.93014 5.07256 6.68635C4.82876 6.44255 4.6918 6.11189 4.6918 5.76711C4.6918 5.42233 4.82876 5.09167 5.07256 4.84787C5.31635 4.60407 5.64702 4.46711 5.9918 4.46711C6.17488 4.44635 6.36028 4.46449 6.53586 4.52034C6.71144 4.5762 6.87325 4.66852 7.01068 4.79124C7.14811 4.91397 7.25807 5.06434 7.33336 5.23251C7.40864 5.40068 7.44756 5.58286 7.44756 5.76711C7.44756 5.95136 7.40864 6.13354 7.33336 6.30171C7.25807 6.46988 7.14811 6.62025 7.01068 6.74297C6.87325 6.8657 6.71144 6.95801 6.53586 7.01387C6.36028 7.06973 6.17488 7.08787 5.9918 7.06711ZM16.2585 15.6171H13.7585V11.5921C13.7585 10.5838 13.4001 9.92544 12.4918 9.92544C12.2107 9.9275 11.937 10.0157 11.7075 10.1781C11.478 10.3405 11.3039 10.5693 11.2085 10.8338C11.1433 11.0296 11.115 11.2359 11.1251 11.4421V15.6088H8.62513V8.10878H11.1251V9.16711C11.3522 8.77303 11.6826 8.44838 12.0805 8.22811C12.4784 8.00785 12.9289 7.90032 13.3835 7.91711C15.0501 7.91711 16.2585 8.99211 16.2585 11.3004V15.6171Z" fill="currentColor"/>
	</svg>
	<svg width="21" height="20" viewBox="0 0 21 20" fill="currentColor"
		xmlns="http://www.w3.org/2000/svg" id="instagram_alt_solid">
		<path d="M10.5003 7.93366C10.0916 7.93366 9.69201 8.05487 9.35215 8.28195C9.01229 8.50904 8.7474 8.83181 8.59097 9.20945C8.43455 9.58708 8.39363 10.0026 8.47337 10.4035C8.55311 10.8044 8.74994 11.1727 9.03897 11.4617C9.328 11.7507 9.69625 11.9475 10.0971 12.0273C10.498 12.107 10.9136 12.0661 11.2912 11.9097C11.6688 11.7533 11.9916 11.4884 12.2187 11.1485C12.4458 10.8086 12.567 10.4091 12.567 10.0003C12.567 9.72893 12.5135 9.46019 12.4097 9.20945C12.3058 8.95871 12.1536 8.73088 11.9617 8.53897C11.7698 8.34706 11.5419 8.19483 11.2912 8.09097C11.0405 7.98711 10.7717 7.93366 10.5003 7.93366ZM18.7753 5.89199C18.7709 5.24846 18.6524 4.6108 18.4253 4.00866C18.2581 3.56804 17.9993 3.1679 17.666 2.83465C17.3327 2.50139 16.9326 2.24259 16.492 2.07533C15.8899 1.84821 15.2522 1.72971 14.6087 1.72533C13.5337 1.66699 13.217 1.66699 10.5003 1.66699C7.78366 1.66699 7.46699 1.66699 6.39199 1.72533C5.74846 1.72971 5.1108 1.84821 4.50866 2.07533C4.06804 2.24259 3.6679 2.50139 3.33465 2.83465C3.00139 3.1679 2.74259 3.56804 2.57533 4.00866C2.34821 4.6108 2.22971 5.24846 2.22533 5.89199C2.16699 6.96699 2.16699 7.28366 2.16699 10.0003C2.16699 12.717 2.16699 13.0337 2.22533 14.1087C2.2343 14.7545 2.35264 15.3941 2.57533 16.0003C2.74185 16.4389 3.00043 16.8367 3.33366 17.167C3.66549 17.5022 4.06648 17.761 4.50866 17.9253C5.1108 18.1524 5.74846 18.2709 6.39199 18.2753C7.46699 18.3337 7.78366 18.3337 10.5003 18.3337C13.217 18.3337 13.5337 18.3337 14.6087 18.2753C15.2522 18.2709 15.8899 18.1524 16.492 17.9253C16.9342 17.761 17.3352 17.5022 17.667 17.167C18.0002 16.8367 18.2588 16.4389 18.4253 16.0003C18.6522 15.3952 18.7707 14.7549 18.7753 14.1087C18.8337 13.0337 18.8337 12.717 18.8337 10.0003C18.8337 7.28366 18.8337 6.96699 18.7753 5.89199ZM16.6587 12.5587C16.6319 13.0729 16.5222 13.5795 16.3337 14.0587C16.1719 14.4584 15.9314 14.8215 15.6265 15.1265C15.3215 15.4314 14.9584 15.6719 14.5587 15.8337C14.0749 16.0117 13.5656 16.1102 13.0503 16.1253H7.95033C7.4351 16.1102 6.92573 16.0117 6.44199 15.8337C6.02875 15.6801 5.65556 15.4351 5.35033 15.117C5.04838 14.818 4.8152 14.4569 4.66699 14.0587C4.48829 13.5754 4.3925 13.0655 4.38366 12.5503V10.0003V7.45033C4.3925 6.93518 4.48829 6.42523 4.66699 5.94199C4.82056 5.52875 5.06555 5.15556 5.38366 4.85033C5.68394 4.55001 6.04471 4.31707 6.44199 4.16699C6.92573 3.989 7.4351 3.8905 7.95033 3.87533H13.0503C13.5656 3.8905 14.0749 3.989 14.5587 4.16699C14.9719 4.32056 15.3451 4.56555 15.6503 4.88366C15.9523 5.18262 16.1855 5.54377 16.3337 5.94199C16.5117 6.42573 16.6102 6.9351 16.6253 7.45033V10.0003C16.6253 11.717 16.6837 11.892 16.6587 12.5503V12.5587ZM15.3253 6.35866C15.2261 6.08948 15.0697 5.84503 14.8668 5.64217C14.664 5.43931 14.4195 5.28288 14.1503 5.18366C13.7807 5.05554 13.3914 4.99348 13.0003 5.00033H8.00033C7.60721 5.00417 7.21788 5.07752 6.85033 5.21699C6.58527 5.31171 6.3434 5.46175 6.14081 5.65716C5.93822 5.85257 5.77954 6.08886 5.67533 6.35033C5.55431 6.72146 5.49518 7.10999 5.50033 7.50033V12.5003C5.50859 12.893 5.5818 13.2816 5.71699 13.6503C5.81621 13.9195 5.97265 14.164 6.1755 14.3668C6.37836 14.5697 6.62281 14.7261 6.89199 14.8253C7.24755 14.9561 7.6217 15.0292 8.00033 15.042H13.0003C13.3934 15.0381 13.7828 14.9648 14.1503 14.8253C14.4195 14.7261 14.664 14.5697 14.8668 14.3668C15.0697 14.164 15.2261 13.9195 15.3253 13.6503C15.4648 13.2828 15.5381 12.8934 15.542 12.5003V10.0003V7.50033C15.5422 7.10682 15.4687 6.71676 15.3253 6.35033V6.35866ZM10.5003 13.1837C10.0827 13.1837 9.66913 13.1013 9.28338 12.9412C8.89762 12.7811 8.54725 12.5465 8.25231 12.2508C7.95738 11.9551 7.72368 11.6041 7.56461 11.2179C7.40554 10.8317 7.32423 10.418 7.32533 10.0003C7.32533 9.37037 7.51224 8.75457 7.8624 8.2309C8.21256 7.70722 8.71022 7.29921 9.29238 7.05852C9.87455 6.81783 10.515 6.75528 11.1328 6.87878C11.7505 7.00229 12.3177 7.3063 12.7626 7.75233C13.2074 8.19836 13.51 8.76636 13.6318 9.38441C13.7537 10.0025 13.6895 10.6428 13.4473 11.2243C13.2051 11.8059 12.7957 12.3024 12.2712 12.6512C11.7466 13 11.1303 13.1853 10.5003 13.1837ZM13.8337 7.44199C13.6494 7.42249 13.479 7.33551 13.3551 7.1978C13.2312 7.06009 13.1626 6.8814 13.1626 6.69616C13.1626 6.51092 13.2312 6.33223 13.3551 6.19452C13.479 6.05681 13.6494 5.96982 13.8337 5.95033C14.0179 5.96982 14.1884 6.05681 14.3123 6.19452C14.4362 6.33223 14.5047 6.51092 14.5047 6.69616C14.5047 6.8814 14.4362 7.06009 14.3123 7.1978C14.1884 7.33551 14.0179 7.42249 13.8337 7.44199Z" fill="currentColor"/>
	</svg>
	<svg width="21" height="20" viewBox="0 0 21 20" fill="currentColor"
		xmlns="http://www.w3.org/2000/svg" id="github_solid">
		<path d="M10.4996 1.87207C8.52075 1.87203 6.6065 2.57614 5.09936 3.85841C3.59222 5.14068 2.59056 6.91742 2.27362 8.87068C1.95668 10.8239 2.34515 12.8262 3.3695 14.5193C4.39386 16.2123 5.98726 17.4856 7.86455 18.1112C8.28122 18.1846 8.43705 17.9346 8.43705 17.7154C8.43705 17.5179 8.42705 16.8612 8.42705 16.1637C6.33289 16.5487 5.79122 15.6529 5.62455 15.1846C5.43967 14.7285 5.1465 14.3244 4.77039 14.0071C4.47872 13.8512 4.06205 13.4654 4.75955 13.4554C5.02612 13.4842 5.2818 13.5769 5.50492 13.7256C5.72803 13.8743 5.912 14.0746 6.04122 14.3096C6.15516 14.5143 6.30838 14.6945 6.49211 14.8399C6.67583 14.9854 6.88644 15.0931 7.11187 15.1569C7.3373 15.2208 7.57312 15.2396 7.80581 15.2121C8.0385 15.1847 8.26349 15.1116 8.46789 14.9971C8.50398 14.5732 8.69294 14.1769 8.99955 13.8821C7.14539 13.6737 5.20789 12.9554 5.20789 9.7679C5.19608 8.93955 5.5017 8.13808 6.06205 7.5279C5.80731 6.80808 5.83712 6.01815 6.14539 5.31957C6.14539 5.31957 6.84289 5.10124 8.43705 6.17374C9.80062 5.7987 11.2401 5.7987 12.6037 6.17374C14.1971 5.0904 14.8954 5.31957 14.8954 5.31957C15.2037 6.01813 15.2335 6.8081 14.9787 7.5279C15.5408 8.13703 15.8467 8.9392 15.8329 9.7679C15.8329 12.9654 13.8846 13.6737 12.0304 13.8821C12.2293 14.0836 12.3824 14.3256 12.4795 14.5917C12.5766 14.8577 12.6152 15.1415 12.5929 15.4237C12.5929 16.5387 12.5829 17.4346 12.5829 17.7154C12.5829 17.9346 12.7387 18.1946 13.1554 18.1112C15.0292 17.4803 16.6179 16.2041 17.6377 14.5102C18.6576 12.8163 19.0423 10.8152 18.7232 8.86389C18.4041 6.91262 17.4019 5.13826 15.8956 3.85755C14.3892 2.57685 12.4767 1.87315 10.4996 1.87207Z" fill="currentColor"/>
	</svg>
	<svg width="24" height="24" viewBox="0 0 24 24" fill="currentColor"
		xmlns="http://www.w3.org/2000/svg" id="sun">
		<path d="M5.64 17L4.93 17.71C4.74375 17.8974 4.63921 18.1508 4.63921 18.415C4.63921 18.6792 4.74375 18.9326 4.93 19.12C5.11736 19.3063 5.37081 19.4108 5.635 19.4108C5.89919 19.4108 6.15264 19.3063 6.34 19.12L7.05 18.41C7.21383 18.2187 7.29943 17.9726 7.28971 17.7209C7.27999 17.4693 7.17566 17.2305 6.99756 17.0524C6.81947 16.8743 6.58073 16.77 6.32905 16.7603C6.07738 16.7506 5.8313 16.8362 5.64 17ZM5 12C5 11.7348 4.89464 11.4804 4.70711 11.2929C4.51957 11.1054 4.26522 11 4 11H3C2.73478 11 2.48043 11.1054 2.29289 11.2929C2.10536 11.4804 2 11.7348 2 12C2 12.2652 2.10536 12.5196 2.29289 12.7071C2.48043 12.8946 2.73478 13 3 13H4C4.26522 13 4.51957 12.8946 4.70711 12.7071C4.89464 12.5196 5 12.2652 5 12ZM12 5C12.2652 5 12.5196 4.89464 12.7071 4.70711C12.8946 4.51957 13 4.26522 13 4V3C13 2.73478 12.8946 2.48043 12.7071 2.29289C12.5196 2.10536 12.2652 2 12 2C11.7348 2 11.4804 2.10536 11.2929 2.29289C11.1054 2.48043 11 2.73478 11 3V4C11 4.26522 11.1054 4.51957 11.2929 4.70711C11.4804 4.89464 11.7348 5 12 5ZM5.64 7.05C5.82626 7.23474 6.07766 7.3389 6.34 7.34C6.47161 7.34076 6.60207 7.31554 6.72391 7.26577C6.84574 7.21601 6.95656 7.14268 7.05 7.05C7.23625 6.86264 7.34079 6.60919 7.34079 6.345C7.34079 6.08081 7.23625 5.82736 7.05 5.64L6.34 4.93C6.1487 4.76617 5.90262 4.68057 5.65095 4.69029C5.39927 4.70001 5.16053 4.80434 4.98244 4.98244C4.80434 5.16053 4.70001 5.39927 4.69029 5.65095C4.68057 5.90262 4.76617 6.1487 4.93 6.34L5.64 7.05ZM17.64 7.34C17.9023 7.3389 18.1537 7.23474 18.34 7.05L19.05 6.34C19.1547 6.25035 19.2397 6.14004 19.2997 6.01597C19.3597 5.89191 19.3935 5.75677 19.3988 5.61905C19.4041 5.48133 19.3809 5.344 19.3306 5.21568C19.2804 5.08735 19.2041 4.9708 19.1066 4.87335C19.0092 4.77589 18.8926 4.69964 18.7643 4.64936C18.636 4.59909 18.4987 4.57588 18.3609 4.5812C18.2232 4.58652 18.0881 4.62025 17.964 4.68027C17.84 4.7403 17.7296 4.82532 17.64 4.93L17 5.64C16.8137 5.82736 16.7092 6.08081 16.7092 6.345C16.7092 6.60919 16.8137 6.86264 17 7.05C17.1763 7.22536 17.4116 7.32875 17.66 7.34H17.64ZM21 11H20C19.7348 11 19.4804 11.1054 19.2929 11.2929C19.1054 11.4804 19 11.7348 19 12C19 12.2652 19.1054 12.5196 19.2929 12.7071C19.4804 12.8946 19.7348 13 20 13H21C21.2652 13 21.5196 12.8946 21.7071 12.7071C21.8946 12.5196 22 12.2652 22 12C22 11.7348 21.8946 11.4804 21.7071 11.2929C21.5196 11.1054 21.2652 11 21 11ZM12 19C11.7348 19 11.4804 19.1054 11.2929 19.2929C11.1054 19.4804 11 19.7348 11 20V21C11 21.2652 11.1054 21.5196 11.2929 21.7071C11.4804 21.8946 11.7348 22 12 22C12.2652 22 12.5196 21.8946 12.7071 21.7071C12.8946 21.5196 13 21.2652 13 21V20C13 19.7348 12.8946 19.4804 12.7071 19.2929C12.5196 19.1054 12.2652 19 12 19ZM18.36 17C18.17 16.8943 17.9508 16.8534 17.7355 16.8835C17.5202 16.9136 17.3205 17.0131 17.1668 17.1668C17.0131 17.3205 16.9136 17.5202 16.8835 17.7355C16.8534 17.9508 16.8943 18.17 17 18.36L17.71 19.07C17.8974 19.2563 18.1508 19.3608 18.415 19.3608C18.6792 19.3608 18.9326 19.2563 19.12 19.07C19.3063 18.8826 19.4108 18.6292 19.4108 18.365C19.4108 18.1008 19.3063 17.8474 19.12 17.66L18.36 17ZM12 6.5C10.9122 6.5 9.84883 6.82257 8.94436 7.42692C8.03989 8.03126 7.33494 8.89025 6.91866 9.89524C6.50238 10.9002 6.39346 12.0061 6.60568 13.073C6.8179 14.1399 7.34172 15.1199 8.11091 15.8891C8.8801 16.6583 9.86011 17.1821 10.927 17.3943C11.9939 17.6065 13.0998 17.4976 14.1048 17.0813C15.1098 16.6651 15.9687 15.9601 16.5731 15.0556C17.1774 14.1512 17.5 13.0878 17.5 12C17.4974 10.5421 16.917 9.14471 15.8862 8.11383C14.8553 7.08295 13.4579 6.50264 12 6.5ZM12 15.5C11.3078 15.5 10.6311 15.2947 10.0555 14.9101C9.47993 14.5256 9.03133 13.9789 8.76642 13.3394C8.50151 12.6999 8.4322 11.9961 8.56725 11.3172C8.7023 10.6383 9.03564 10.0146 9.52513 9.52513C10.0146 9.03564 10.6383 8.7023 11.3172 8.56725C11.9961 8.4322 12.6999 8.50151 13.3394 8.76642C13.9789 9.03133 14.5256 9.47993 14.9101 10.0555C15.2947 10.6311 15.5 11.3078 15.5 12C15.5 12.9283 15.1313 13.8185 14.4749 14.4749C13.8185 15.1313 12.9283 15.5 12 15.5Z" fill="currentColor"/>
	</svg>
	<svg width="24" height="24" viewBox="0 0 24 24" fill="currentColor"
		xmlns="http://www.w3.org/2000/svg" id="moon">
		<path d="M21.6401 12.9997C21.4958 12.8803 21.3208 12.804 21.1352 12.7792C20.9496 12.7545 20.7607 12.7823 20.5901 12.8597C19.5327 13.3435 18.383 13.5926 17.2201 13.5897C15.069 13.5871 13.0061 12.7341 11.4813 11.2168C9.95644 9.69943 9.09333 7.64077 9.08014 5.48966C9.0847 4.8155 9.16861 4.14421 9.33014 3.48966C9.36441 3.3152 9.35156 3.13476 9.29289 2.96692C9.23423 2.79908 9.13187 2.64991 8.99638 2.53479C8.86088 2.41967 8.69714 2.34276 8.52203 2.31198C8.34692 2.28119 8.16677 2.29765 8.00014 2.35966C6.43246 3.06457 5.06971 4.15642 4.03989 5.53265C3.01008 6.90887 2.34702 8.52429 2.11298 10.2271C1.87895 11.93 2.08164 13.6644 2.70201 15.2674C3.32237 16.8704 4.34005 18.2894 5.65944 19.3911C6.97882 20.4928 8.55661 21.241 10.2446 21.5655C11.9325 21.8899 13.6753 21.7799 15.3091 21.2459C16.9429 20.7118 18.4141 19.7712 19.5845 18.5124C20.755 17.2536 21.5862 15.7179 22.0001 14.0497C22.0506 13.8587 22.0433 13.657 21.9792 13.4701C21.9151 13.2833 21.7971 13.1196 21.6401 12.9997ZM12.1401 19.6897C10.4619 19.6778 8.82834 19.1475 7.46313 18.1714C6.09792 17.1953 5.0678 15.821 4.51382 14.2368C3.95984 12.6526 3.90907 10.9358 4.36847 9.32167C4.82788 7.70749 5.77499 6.27476 7.08014 5.21966V5.48966C7.08278 8.17815 8.15195 10.7558 10.053 12.6568C11.954 14.5578 14.5317 15.627 17.2201 15.6297C17.926 15.6323 18.6301 15.5585 19.3201 15.4097C18.63 16.7152 17.5966 17.8075 16.3313 18.5688C15.066 19.3301 13.6168 19.7315 12.1401 19.7297V19.6897Z" fill="currentColor"/>
	</svg>
</svg>
